<svg width="500" height="506" viewBox="0 0 500 506" fill="none" xmlns="http://www.w3.org/2000/svg">
<path d="M500 252.778C500 113.211 388.036 0 250.001 0C111.964 0 0 113.211 0 252.778C0 392.35 111.964 505.557 250.001 505.557C388.036 505.557 500 392.35 500 252.778ZM475.893 252.778C475.893 378.891 374.727 481.181 250.001 481.181C125.276 481.181 24.1084 378.891 24.1084 252.778C24.1084 126.668 125.276 24.3769 250.001 24.3769C374.727 24.3769 475.893 126.668 475.893 252.778Z" fill="#3E4095"/>
<path fill-rule="evenodd" clip-rule="evenodd" d="M249.812 24.2764C124.819 24.2764 23.4932 126.653 23.4932 252.945C23.4932 379.235 124.819 481.612 249.812 481.612C374.804 481.612 476.13 379.235 476.13 252.945C476.13 126.653 374.804 24.2764 249.812 24.2764Z" fill="#ED3237"/>
<path d="M156.642 69.6968C156.642 120.729 115.249 162.122 64.2148 162.122C64.2148 223.739 64.2148 285.359 64.2148 346.975C115.249 346.975 156.642 388.371 156.642 439.402C218.847 439.402 281.05 439.402 343.255 439.402C343.255 388.371 384.649 346.975 435.682 346.975C435.682 285.359 435.682 223.739 435.682 162.122C384.649 162.122 343.255 120.729 343.255 69.6968C281.05 69.6968 218.847 69.6968 156.642 69.6968Z" fill="#00AFEF"/>
<path d="M238.306 431.802C239.357 430.756 239.882 429.445 239.882 427.872C239.882 426.069 239.094 424.321 237.516 422.63C235.94 421.234 234.156 420.537 232.169 420.537C230.594 420.537 229.292 421.074 228.27 422.153C227.247 423.23 226.736 424.497 226.736 425.953C226.736 428.165 227.495 429.94 229.015 431.281C230.477 432.792 232.2 433.55 234.187 433.55C235.879 433.55 237.254 432.968 238.306 431.802ZM260.127 433.898C262.874 435.18 265.034 436.096 266.614 436.636C268.831 437.437 270.849 437.831 272.66 437.831C274.412 437.831 276.077 437.508 277.655 436.868C279.233 436.243 281.015 435.122 283.001 433.55C285.865 436.052 288.639 437.305 291.327 437.305C292.612 437.305 293.825 436.942 294.964 436.227C296.104 435.514 297.113 434.424 297.988 432.94C296.703 434.451 294.804 435.209 292.292 435.209C290.772 435.209 289.267 434.903 287.777 434.293C286.289 433.679 284.783 432.705 283.264 431.368C281.454 432.705 279.802 433.679 278.311 434.293C276.823 434.903 275.376 435.209 273.974 435.209C272.514 435.209 269.476 434.277 264.86 432.415C260.244 430.553 255.773 429.618 251.451 429.618C250.223 428.921 249.217 427.962 248.427 426.737C247.639 425.516 246.835 424.263 246.018 422.98C244.616 421.293 243.388 419.925 242.335 418.878C240.757 417.247 239.21 415.734 237.69 414.333C237.399 414.103 236.989 413.986 236.464 413.986C235.998 413.986 234.449 414.569 231.819 415.734C229.717 416.664 227.613 417.509 225.509 418.266C222.997 418.672 221.084 419.212 219.769 419.881C218.455 420.549 217.796 421.177 217.796 421.759C217.796 422.514 218.47 422.893 219.814 422.893C220.69 422.893 221.683 422.706 222.792 422.328C223.903 421.949 225.071 421.293 226.299 420.361C228.694 419.431 230.448 418.818 231.556 418.527C233.192 418.237 234.83 417.916 236.464 417.566C237.107 417.975 238.232 419.766 239.839 422.923C241.444 426.096 242.248 428.178 242.248 429.152C242.248 429.269 242.234 429.371 242.205 429.458C242.176 429.545 242.132 429.618 242.073 429.677C241.547 430.421 241.006 431.178 240.453 431.918C239.897 432.678 239.444 433.477 239.094 434.337C237.399 434.743 235.531 434.946 233.484 434.946C231.266 434.946 229.306 434.684 227.613 434.161C225.919 433.624 224.078 432.705 222.091 431.368C220.865 432.415 219.491 433.274 217.972 433.943C216.453 434.611 214.964 434.946 213.502 434.946C212.16 434.946 210.787 434.656 209.383 434.074C207.981 433.493 206.58 432.591 205.177 431.368C204.126 432.705 202.985 433.679 201.76 434.293C200.532 434.903 199.276 435.209 197.992 435.209C195.478 435.209 193.463 434.451 191.944 432.94C193.287 435.848 195.478 437.305 198.516 437.305C200.795 437.305 202.928 436.17 204.914 433.898C206.316 434.917 207.763 435.706 209.251 436.243C210.742 436.781 212.102 437.044 213.327 437.044C214.905 437.044 216.395 436.781 217.796 436.243C219.199 435.706 220.573 434.917 221.915 433.898C225.89 436.518 229.746 437.831 233.484 437.831C237.107 437.831 240.643 436.518 244.089 433.898C247.011 436.518 249.699 437.831 252.152 437.831C253.496 437.831 254.795 437.497 256.052 436.825C257.308 436.155 258.668 435.18 260.127 433.898Z" fill="#FEFEFE"/>
<path d="M425.751 336.885C425.851 337.053 425.903 337.236 425.903 337.429C425.903 337.854 425.722 338.165 425.354 338.377C425.183 338.464 425.003 338.51 424.81 338.51C424.383 338.51 424.071 338.329 423.861 337.959C423.774 337.802 423.727 337.626 423.727 337.429C423.727 337.007 423.909 336.696 424.276 336.486C424.434 336.387 424.61 336.333 424.81 336.333C425.23 336.333 425.539 336.516 425.751 336.885ZM423.172 335.041C423.33 335.327 423.411 335.642 423.411 335.982C423.411 336.712 423.096 337.264 422.457 337.638C422.171 337.796 421.856 337.879 421.517 337.879C420.785 337.879 420.241 337.557 419.878 336.92C419.709 336.638 419.622 336.324 419.622 335.982C419.622 335.253 419.943 334.702 420.58 334.326C420.872 334.169 421.187 334.087 421.517 334.087C422.26 334.087 422.808 334.404 423.172 335.041ZM419.615 332.585C419.615 335.112 418.72 337.269 416.93 339.062C415.146 340.844 412.988 341.739 410.466 341.739C408.19 341.739 406.203 341.003 404.501 339.528C402.592 340.557 400.564 341.072 398.416 341.072C396.937 341.072 395.492 340.812 394.083 340.3C390.509 339.02 387.998 336.615 386.56 333.087C386.415 333.087 386.351 333.087 386.372 333.087C383.853 333.087 381.694 332.192 379.905 330.402C378.119 328.615 377.225 326.46 377.225 323.933C377.225 321.412 378.119 319.253 379.905 317.463C381.694 315.679 383.853 314.785 386.372 314.785C388.65 314.785 390.637 315.528 392.34 317.006C394.247 315.986 396.27 315.467 398.416 315.467C399.903 315.467 401.342 315.721 402.738 316.224C406.325 317.511 408.833 319.919 410.275 323.454C410.426 323.443 410.49 323.436 410.466 323.436C412.988 323.436 415.146 324.332 416.93 326.122C418.72 327.906 419.615 330.065 419.615 332.585ZM379.122 316.504C379.122 317.025 378.933 317.476 378.566 317.847C378.196 318.214 377.752 318.399 377.225 318.399C376.705 318.399 376.254 318.214 375.885 317.847C375.518 317.476 375.329 317.025 375.329 316.504C375.329 315.977 375.518 315.536 375.885 315.167C376.254 314.798 376.705 314.61 377.225 314.61C377.752 314.61 378.196 314.798 378.566 315.167C378.933 315.536 379.122 315.977 379.122 316.504ZM375.435 314.405C375.435 315.125 375.08 315.486 374.358 315.486C373.628 315.486 373.258 315.125 373.258 314.405C373.258 313.675 373.628 313.311 374.358 313.311C375.08 313.311 375.435 313.675 375.435 314.405ZM415.76 332.585C415.76 331.122 415.24 329.878 414.2 328.853C413.368 328.004 412.362 327.502 411.186 327.345C411.31 329.138 411.069 330.882 410.455 332.585C409.841 334.288 408.916 335.789 407.671 337.088C408.524 337.615 409.46 337.879 410.46 337.879C411.929 337.879 413.176 337.364 414.21 336.327C415.246 335.292 415.76 334.045 415.76 332.585ZM389.164 319.436C388.31 318.909 387.38 318.645 386.372 318.645C384.912 318.645 383.665 319.162 382.635 320.196C381.601 321.232 381.086 322.478 381.086 323.94C381.086 325.396 381.606 326.646 382.642 327.688C383.478 328.519 384.478 329.016 385.654 329.18C385.53 327.386 385.77 325.634 386.38 323.94C386.994 322.236 387.918 320.735 389.164 319.436Z" fill="#FEFEFE"/>
<path fill-rule="evenodd" clip-rule="evenodd" d="M78.1747 327.821C77.5823 327.821 77.1004 328.27 77.1004 328.823C77.1004 329.377 77.5823 329.828 78.1747 329.828C78.7696 329.828 79.2515 329.377 79.2515 328.823C79.2515 328.27 78.7696 327.821 78.1747 327.821Z" fill="#FEFEFE"/>
<path fill-rule="evenodd" clip-rule="evenodd" d="M91.2832 340.209C91.7636 340.209 92.1526 340.602 92.1526 341.081C92.1526 341.56 91.7636 341.951 91.2832 341.951C90.8012 341.951 90.4138 341.56 90.4138 341.081C90.4138 340.602 90.8012 340.209 91.2832 340.209Z" fill="#FEFEFE"/>
<path fill-rule="evenodd" clip-rule="evenodd" d="M92.1018 315.942C92.5825 315.942 92.9715 316.332 92.9715 316.813C92.9715 317.292 92.5825 317.684 92.1018 317.684C91.6214 317.684 91.2311 317.292 91.2311 316.813C91.2311 316.332 91.6214 315.942 92.1018 315.942Z" fill="#FEFEFE"/>
<path fill-rule="evenodd" clip-rule="evenodd" d="M79.0963 311.024C79.5782 311.024 79.9672 311.417 79.9672 311.898C79.9672 312.379 79.5782 312.768 79.0963 312.768C78.6159 312.768 78.2269 312.379 78.2269 311.898C78.2269 311.417 78.6159 311.024 79.0963 311.024Z" fill="#FEFEFE"/>
<path fill-rule="evenodd" clip-rule="evenodd" d="M66.1939 338.263C66.6743 338.263 67.0646 338.655 67.0646 339.136C67.0646 339.618 66.6743 340.007 66.1939 340.007C65.7132 340.007 65.323 339.618 65.323 339.136C65.323 338.655 65.7132 338.263 66.1939 338.263Z" fill="#FEFEFE"/>
<path fill-rule="evenodd" clip-rule="evenodd" d="M78.9948 343.693C79.4752 343.693 79.8657 344.082 79.8657 344.563C79.8657 345.043 79.4752 345.432 78.9948 345.432C78.5128 345.432 78.1238 345.043 78.1238 344.563C78.1238 344.082 78.5128 343.693 78.9948 343.693Z" fill="#FEFEFE"/>
<path fill-rule="evenodd" clip-rule="evenodd" d="M66.0921 316.25C66.5712 316.25 66.9618 316.639 66.9618 317.119C66.9618 317.599 66.5712 317.99 66.0921 317.99C65.6117 317.99 65.2214 317.599 65.2214 317.119C65.2214 316.639 65.6117 316.25 66.0921 316.25Z" fill="#FEFEFE"/>
<path d="M109.186 264.565C109.186 263.789 109.598 263.118 110.425 262.549C111.252 261.98 112.258 261.62 113.446 261.465H114.452C115.486 261.465 116.389 261.697 117.164 262.15C117.939 262.615 118.328 263.144 118.328 263.75C118.328 264.472 117.939 265.108 117.164 265.661C116.389 266.229 115.357 266.577 114.066 266.736H113.214C112.078 266.736 111.149 266.551 110.425 266.18C109.702 265.804 109.289 265.261 109.186 264.565ZM98.7268 224.37C98.1578 223.402 97.8748 222.692 97.8748 222.238C97.8748 222.135 97.9124 222.059 97.9908 222.007C98.0677 221.955 98.1578 221.904 98.2622 221.852C98.8299 221.852 99.747 222.354 101.013 223.363C102.277 224.37 103.478 225.57 104.614 226.951C107.093 228.45 110.089 230.516 113.6 233.137C116.648 235.409 119.283 237.461 121.502 239.321C122.693 240.34 123.88 241.348 125.067 242.331C126.152 241.71 127.843 241.192 130.142 240.779C132.44 240.366 134.983 239.926 137.773 239.461C136.274 238.328 135.009 237.216 133.977 236.133C132.117 233.808 130.412 231.794 128.863 230.089C128.502 229.674 128.088 229.469 127.624 229.469H127.314C126.952 229.314 126.719 229.185 126.616 229.083L123.517 224.187C122.899 223.154 122.587 222.484 122.587 222.174C122.743 221.966 122.873 221.852 122.976 221.852C123.543 221.852 124.601 222.521 126.176 223.839C127.74 225.158 128.94 226.46 129.766 227.75C133.008 230.077 135.861 232.375 138.328 234.648C141.362 237.386 142.886 239.268 142.886 240.303V240.689C141.478 242.446 139.154 243.867 135.913 244.949C133.202 245.828 130.49 246.683 127.779 247.507V247.973C128.036 249.676 128.282 251.341 128.515 252.969C128.747 254.595 128.863 256.031 128.863 257.27C128.863 259.282 128.579 261.231 128.011 263.118C127.457 265.005 126.461 266.812 125.067 268.515V270.298C125.067 271.226 125.208 273.835 125.506 278.121C125.623 279.825 125.687 281.403 125.687 282.846C125.687 284.396 125.557 285.948 125.298 287.495C125.298 288.166 125.067 288.504 124.601 288.504H120.341C120.081 288.504 119.875 288.479 119.722 288.425C119.566 288.373 119.412 288.296 119.257 288.192C119.566 287.987 119.851 287.857 120.109 287.806C120.936 287.547 122.021 287.417 123.362 287.417C122.899 285.508 122.304 280.847 121.581 273.46C121.272 270.348 121.013 268.595 120.806 268.18C120.032 266.682 119.644 265.313 119.644 264.075C119.644 262.976 120.187 261.012 121.272 258.173C121.788 256.832 122.045 255.771 122.045 254.995V253.91C121.931 253.538 121.502 252.712 120.766 251.418C120.019 250.127 119.644 248.993 119.644 248.011C119.644 247.237 119.824 246.461 120.187 245.685C118.534 244.344 116.958 242.795 115.46 241.065C113.963 239.335 112.748 237.746 111.821 236.3C108.565 234.117 106.81 232.929 106.55 232.722C105.62 231.948 104.614 230.942 103.53 229.7C103.374 229.649 103.181 229.611 102.948 229.585C102.715 229.559 102.522 229.521 102.367 229.469C102.007 229.469 101.747 229.366 101.593 229.158L98.7268 224.37Z" fill="#FEFEFE"/>
<path d="M256.986 194.974C256.986 196.388 256.721 197.889 256.192 199.48C253.718 201.599 249.127 203.805 242.417 206.103C237.294 207.691 232.262 209.28 227.316 210.871C238.088 246.011 243.476 272.238 243.476 289.543C243.476 306.322 238.001 319.565 227.052 329.28C218.221 337.05 204.8 343.229 186.787 347.825C173.719 351.179 163.212 352.857 155.265 352.857C145.198 352.857 134.778 350.163 124.006 344.777C113.233 339.39 105.199 332.546 99.8993 324.248C95.8379 318.064 93.8059 314.71 93.8059 314.182C93.8059 312.768 96.5435 308.793 102.02 302.26C107.492 295.727 110.982 292.017 112.483 291.136C113.984 290.252 117.339 288.751 122.549 286.633C127.758 284.511 130.892 283.451 131.953 283.451C131.953 283.451 137.603 288.31 148.907 298.022C160.208 307.735 168.331 312.592 173.277 312.592C181.753 312.592 185.992 305.703 185.992 291.928C185.992 282.039 184.402 270.385 181.223 256.963C178.222 245.658 175.13 234.27 171.954 222.79C168.951 222.967 162.682 225.261 153.144 229.677C150.847 229.147 147.184 226.986 142.152 223.187C137.118 219.389 133.939 216.433 132.615 214.313C131.29 212.195 129.259 206.06 126.522 195.903C123.784 185.747 122.328 179.26 122.151 176.434L124.535 172.989C127.008 171.93 145.728 168.088 180.694 161.466C215.661 154.842 234.293 151.53 236.589 151.53C238.001 151.53 241.18 154.049 246.125 159.079C251.069 164.115 253.895 167.514 254.601 169.279C256.191 173.166 256.986 181.729 256.986 194.974ZM249.834 192.858V187.028C249.834 179.964 249.657 175.901 249.304 174.843C247.89 171.665 243.565 166.632 236.323 159.744L237.912 166.366C238.442 170.78 239.504 177.051 241.091 185.175C242.858 186.941 245.772 189.502 249.834 192.858ZM237.119 289.987C237.119 284.864 234.954 271.134 230.627 248.837C226.3 226.543 223.255 213.96 221.488 211.134C220.252 209.369 218.753 208.044 216.986 207.163C215.221 206.28 213.455 205.306 211.686 204.246C215.043 213.076 219.105 229.635 223.873 253.917C228.819 278.683 231.291 295.239 231.291 303.542C231.291 308.484 229.524 314.887 225.993 322.658C233.41 314.004 237.119 303.098 237.119 289.987ZM233.631 185.967L227.801 158.33L130.892 178.771V180.627C130.892 184.69 133.984 194.004 140.164 208.485H141.752C158.532 202.656 167.803 199.745 169.569 199.745C175.042 199.745 180.958 213.52 187.316 241.067C192.615 265.085 195.262 281.95 195.262 291.666C195.262 301.908 192.042 309.634 185.595 314.842C179.149 320.054 170.539 322.658 159.767 322.658C152.527 322.658 144.844 319.744 136.722 313.917C130.01 308.793 123.299 303.674 116.589 298.55C115.176 299.081 112.88 301.465 109.701 305.703C107.581 308.705 105.374 311.62 103.078 314.446C113.322 334.401 131.333 344.379 157.118 344.379C163.652 344.379 173.365 342.965 186.257 340.142C198.264 337.67 207.184 334.224 213.012 329.808C220.606 323.984 224.403 315.771 224.403 305.175C224.403 294.756 222.284 280.361 218.046 261.995C214.512 247.692 210.981 233.387 207.448 219.081C207.272 217.846 206.126 213.696 204.005 206.631C202.061 200.098 201.092 196.655 201.092 196.299C201.092 194.004 205.86 191.795 215.395 189.679C221.357 188.442 227.449 187.204 233.631 185.967ZM405.329 228.353C405.329 240.716 401.798 251.929 394.733 261.995C387.67 272.063 378.398 278.859 366.92 282.393C360.914 284.511 352.084 287.514 340.429 291.4C340.253 291.928 340.165 292.547 340.165 293.253C340.165 298.197 340.385 305.703 340.827 315.771C341.268 325.837 341.489 333.341 341.489 338.287C341.489 344.999 339.812 348.794 336.456 349.677C334.16 350.384 330.804 350.693 326.39 350.604C321.974 350.516 318.795 350.648 316.853 351.001C315.792 351.179 312.436 352.06 306.787 353.651C302.547 354.886 299.281 355.506 296.985 355.506C294.866 355.506 291.776 352.944 287.713 347.825C284.181 343.406 281.798 339.788 280.561 336.962C278.442 332.018 275.883 305.879 272.881 258.552C270.053 215.285 268.64 186.323 268.64 171.665C268.64 168.131 269.081 165.748 269.966 164.513C272.084 161.862 280.386 159.569 294.866 157.624C306.346 156.211 315.617 155.506 322.681 155.506C348.994 155.506 368.861 160.625 382.282 170.869C397.648 182.702 405.329 201.863 405.329 228.353ZM390.76 255.903L384.667 255.373L381.488 255.903C373.895 261.731 365.505 266.322 356.323 269.676C351.025 271.443 341.841 273.741 328.773 276.567C332.836 280.625 335.572 283.983 336.986 286.633C346.875 283.097 356.677 279.656 366.391 276.3C376.81 272.238 384.933 265.438 390.76 255.903ZM395.263 208.485C395.263 197.361 390.849 187.913 382.018 180.141C374.778 173.431 365.241 168.484 353.41 165.308C344.579 163.012 339.015 161.862 336.72 161.862C308.641 161.862 288.155 163.983 275.263 168.22C275.263 215.549 279.15 270.032 286.92 331.665C298.575 329.543 310.407 327.955 322.416 326.898V325.04C322.416 321.158 322.15 315.33 321.62 307.56C321.092 299.788 320.826 293.962 320.826 290.076C320.826 288.31 320.385 285.748 319.502 282.393C318.618 279.036 318.177 276.567 318.177 274.976C318.177 272.15 320.915 270.296 326.39 269.412C330.099 269.06 333.807 268.707 337.516 268.353C345.814 266.94 354.381 264.469 363.21 260.935C371.51 257.58 378.927 250.339 385.462 239.215C391.996 228.086 395.263 217.846 395.263 208.485ZM330.892 343.675C326.478 337.095 324.093 333.783 323.741 333.783C321.267 333.783 309.7 335.24 289.039 338.198C294.866 344.952 297.78 348.354 297.78 348.354C300.077 348.354 304.932 347.514 312.349 345.88C319.768 344.247 325.949 343.498 330.892 343.675ZM361.091 208.749C361.091 218.11 355.969 225.97 345.727 232.326C336.72 237.626 327.184 240.452 317.118 240.804L313.939 237.89C313.939 237.714 313.939 234.975 313.939 229.677C313.939 225.793 313.409 219.921 312.349 212.061C311.29 204.201 310.76 198.331 310.76 194.446C310.76 190.914 313.939 188.793 320.298 188.088C321.533 187.913 326.301 187.824 334.601 187.824C352.26 187.824 361.091 194.799 361.091 208.749ZM354.734 203.717C353.676 200.891 351.378 198.509 347.846 196.565C344.358 194.621 340.915 193.65 337.516 193.65C334.645 193.65 329.612 194.446 322.416 196.035C328.685 202.216 331.731 205.306 331.554 205.306C332.482 205.306 333.63 204.865 335.087 203.982C336.147 203.805 338.485 203.541 342.062 203.188C345.109 202.836 347.448 202.656 349.081 202.656C351.07 202.656 352.923 203.013 354.734 203.717ZM354.734 212.459L350.231 209.28C346.7 209.457 341.311 209.369 334.071 209.016C333.542 210.43 333.277 212.459 333.277 215.108C333.277 216.875 333.454 219.389 333.807 222.657C334.16 225.925 334.335 228.442 334.335 230.208C347.935 224.909 354.734 218.992 354.734 212.459Z" fill="#FEFEFE"/>
<path d="M311.851 94.5128C311.956 94.4606 312.073 94.4214 312.201 94.3952C312.33 94.3692 312.473 94.356 312.626 94.356C313.557 94.356 314.435 94.7554 315.261 95.5581C316.088 96.3579 316.654 97.3769 316.965 98.6179C317.07 99.1852 317.146 99.5989 317.197 99.8588C317.25 100.116 317.276 100.376 317.276 100.632C317.276 102.853 316.448 104.248 314.795 104.814H313.943C313.014 104.814 312.137 104.427 311.311 103.627C310.484 102.839 309.89 101.818 309.529 100.595L309.295 98.7469C309.295 96.3316 310.147 94.9252 311.851 94.5128ZM328.844 111.737C329.466 112.819 329.994 114.136 330.458 115.688C330.923 117.236 331.389 118.734 331.84 120.183C332.511 121.267 332.846 122.298 332.846 123.281C332.846 124.262 332.576 124.749 332.022 124.749C331.621 124.749 331.183 124.455 330.704 123.861C330.228 123.264 329.981 122.685 329.981 122.119V120.569C329.569 119.38 329.141 118.321 328.703 117.39C328.264 116.461 327.657 115.249 326.882 113.75C326.623 113.285 325.899 112.589 324.712 111.658C323.319 110.575 322.466 109.825 322.157 109.413C322.723 110.858 323.807 113.596 325.41 117.625C325.925 119.017 326.442 120.077 326.96 120.8C327.786 121.99 328.264 124.236 328.391 127.541C328.522 130.846 328.754 133.078 329.09 134.242C329.426 135.404 331.775 136.785 336.14 138.388C340.504 139.986 342.686 140.944 342.686 141.253V147.062C342.686 147.685 342.274 147.993 341.446 147.993C340.827 147.993 340.491 147.71 340.44 147.141L339.898 143.034C339.898 142.933 337.664 142.223 333.196 140.905C328.728 139.588 326.365 138.774 326.107 138.465C325.642 138 325.088 136.993 324.442 135.441C323.796 133.893 323.112 132.035 322.389 129.864C322.077 131.053 321.639 132.498 321.072 134.203C319.781 137.922 319.135 139.986 319.135 140.401C319.238 141.59 319.42 143.927 319.678 147.424C319.935 150.923 320.064 153.209 320.064 154.281C320.064 154.796 320.051 155.134 320.025 155.312C320 155.496 319.935 155.662 319.832 155.819H313.248C312.576 155.819 312.24 155.469 312.24 154.77C312.24 154.179 312.473 153.881 312.936 153.881L317.043 153.572C317.043 151.919 316.784 149.904 316.268 147.528C315.752 145.153 315.21 142.699 314.641 140.169C314.641 138.669 315.027 136.396 315.802 133.35C317.404 126.947 318.257 123.562 318.36 123.202C316.604 119.38 315.546 117.03 315.184 116.153C314.821 115.275 314.564 114.24 314.409 113.053C314.254 113.467 314.02 114.46 313.711 116.037C313.402 117.611 313.065 118.62 312.705 119.058C312.343 119.498 311.065 119.884 308.87 120.219C306.674 120.554 305.306 120.839 304.764 121.071C304.221 121.305 303.679 121.485 303.136 121.613C302.595 121.743 302.144 121.807 301.781 121.807C300.902 121.807 300.464 121.55 300.464 121.034C300.464 120.569 300.813 120.129 301.511 119.717C302.207 119.305 303.2 119.096 304.492 119.096C305.217 119.096 306.325 118.787 307.825 118.165C308.754 117.753 309.735 117.261 310.767 116.696C310.975 114.888 311.195 113.091 311.426 111.31C311.658 109.529 312.098 108.329 312.743 107.709C313.389 107.087 314.357 106.469 315.649 105.848C317.3 105.076 318.748 104.687 319.987 104.687C321.019 104.687 322.53 105.435 324.532 106.934C326.532 108.43 327.966 110.033 328.844 111.737ZM324.326 155.429C322.105 154.915 320.993 153.559 320.993 151.363V150.266C321.253 149.232 321.781 148.393 322.556 147.774C323.344 147.141 324.249 146.831 325.294 146.831H326.236C327.27 147.088 328.108 147.605 328.728 148.38C329.36 149.157 329.672 150.061 329.672 151.092V152.1C329.05 154.321 327.605 155.429 325.333 155.429H324.326Z" fill="#FEFEFE"/>
<path fill-rule="evenodd" clip-rule="evenodd" d="M198.651 155.928C199.285 155.693 199.167 155.465 199.386 154.745C199.566 154.16 199.675 153.997 199.932 153.437C200.105 153.066 201.141 150.932 201.162 150.741C200.841 150.38 199.89 150.029 199.273 149.956C197.164 149.702 197.295 155.044 198.651 155.928Z" fill="#FEFEFE"/>
<path fill-rule="evenodd" clip-rule="evenodd" d="M194.879 153.582C194.55 152.916 194.653 153.33 194.344 152.761C193.748 151.671 194.137 150.787 192.165 151.749C190.455 152.582 188.244 158.725 191.545 155.655C192.828 154.462 193.03 154.321 194.879 153.582Z" fill="#FEFEFE"/>
<path fill-rule="evenodd" clip-rule="evenodd" d="M194.402 141.82C194.169 143.513 197.074 149.048 198.124 149.965C200.077 148.72 197.713 148.464 196.072 143.713C195.83 143.014 195.698 142.107 195.385 141.601C195.209 141.604 195.116 141.584 194.933 141.625L194.402 141.82Z" fill="#FEFEFE"/>
<path fill-rule="evenodd" clip-rule="evenodd" d="M192.222 150.929C194.187 150.347 192.322 149.768 191.525 146.492C191.355 145.789 190.857 144.346 190.808 143.795C190.741 143.015 191.772 141.62 190.362 141.979C189.839 142.111 189.841 142.351 189.686 142.867C189.568 143.252 189.481 143.55 189.488 143.972C189.513 145.139 191.71 150.049 192.222 150.929Z" fill="#FEFEFE"/>
<path fill-rule="evenodd" clip-rule="evenodd" d="M207.358 129.931C207.547 130.005 207.82 130.082 208.117 130.083C209.12 130.089 208.65 129.89 208.717 129.767C209.189 128.977 207.55 128.94 207.261 129.33C207.587 129.277 207.943 129.181 208.223 129.236C208.673 129.327 208.57 129.378 208.669 129.683C208.286 130.126 208.174 129.793 207.358 129.931Z" fill="#FEFEFE"/>
<path fill-rule="evenodd" clip-rule="evenodd" d="M189.619 124.604C189.95 124.231 189.795 124.231 190.232 123.958C190.296 124.042 190.425 123.857 190.518 124.755C190.873 124.14 190.625 124.02 190.185 123.723C189.676 123.967 189.786 123.973 189.619 124.604Z" fill="#FEFEFE"/>
<path fill-rule="evenodd" clip-rule="evenodd" d="M190.518 124.755C190.425 123.857 190.296 124.042 190.232 123.958C189.795 124.231 189.95 124.231 189.619 124.604C189.624 125.202 189.408 125.598 189.188 126.082C188.096 125.346 188.707 123.341 187.374 123.492L188.234 126.565C186.433 126.462 185.844 125.238 185.058 125.302C185.24 126.626 187.136 126.741 187.818 127.35C187.311 127.906 186.07 128.038 186.503 128.79C186.543 128.805 186.603 128.776 186.635 128.821L187.043 128.848C187.827 128.725 187.567 128.286 188.748 127.96C189.567 129.391 190.6 130.719 191.597 131.774C192.13 131.637 192.175 131.647 192.483 131.261C192.192 130.829 191.275 130.306 189.999 128.564C188.814 126.941 190.425 126.063 190.518 124.755Z" fill="#FEFEFE"/>
<path fill-rule="evenodd" clip-rule="evenodd" d="M207.358 129.931C208.174 129.793 208.286 130.126 208.669 129.683C208.57 129.378 208.673 129.327 208.223 129.236C207.943 129.181 207.587 129.277 207.261 129.33L206.432 129.39C207.092 127.96 208.988 127.811 209.422 127.335C209.49 127.179 209.776 127.543 209.443 126.915C208.916 125.929 206.349 128.352 205.952 128.451C206.206 128.014 206.188 127.24 206.471 126.609C207.049 125.318 207.805 126.253 207.252 124.817C206.383 124.931 206.09 125.784 205.664 126.908C205.02 128.608 205.291 128.485 205.062 129.31C204.78 130.323 201.615 130.46 199.18 132.059C198.353 132.601 198.122 132.69 198.379 133.738C199.156 133.664 199.738 132.992 200.61 132.596C201.497 132.191 205.152 130.644 205.873 131.06C206.714 131.553 206.642 132.288 207.775 132.379C207.538 131.14 206.724 131.244 206.258 130.386L207.358 129.931Z" fill="#FEFEFE"/>
<path fill-rule="evenodd" clip-rule="evenodd" d="M186.436 141.258C187.099 141.501 192.146 140.356 194.228 140.835C195.4 141.106 196.36 141.269 197.431 141.654C198.52 142.041 199.648 142.915 200.398 143.002L200.925 142.415C200.791 141.6 199.874 139.707 199.533 138.723C199.092 137.45 198.679 136.065 198.286 134.763C197.835 133.27 197.53 132.305 196.939 130.926C196.566 130.059 196.523 129.988 195.556 130.034C193.547 130.13 193.982 130.155 191.606 133.001L189.576 135.544C188.908 136.451 188.515 137.423 187.857 138.301C187.398 138.916 186.159 140.565 186.436 141.258Z" fill="#FEFEFE"/>
<path fill-rule="evenodd" clip-rule="evenodd" d="M202.167 117.451C202.046 116.609 201.856 116.177 201.482 115.583C201.648 115.171 201.838 114.76 202.548 114.749C202.491 115.796 202.16 116.345 202.445 117.654C204.31 116.866 202.587 114.67 203.973 113.847C203.661 114.65 203.266 115.86 203.844 116.75C204.747 116.873 204.478 116.505 205.068 116.299C205.701 116.074 205.825 116.419 206.255 115.465C206.849 114.142 206.332 113.256 205.547 112.58C204.388 112.854 205.01 113.153 203.991 113.194C203.217 113.223 203.043 113.61 202.832 114.153C200.774 114.034 201.921 114.438 200.198 115.592L200.262 116.927L198.952 116.802L199.382 116.18C199.526 115.984 199.45 116.119 199.579 115.889C199.696 115.685 199.614 115.778 199.723 115.567C200.169 114.702 200.448 115.092 200.009 114.123C198.459 113.912 198.486 114.695 197.568 115.158C197.494 114.286 198.007 114.42 198.8 113.994C200.806 112.914 199.759 111.681 197.859 113.221C197.057 113.87 197.467 114.134 196.433 114.049C196.46 112.878 197.276 111.606 198.651 111.406C198.404 111.943 198.447 111.776 198.666 112.184C199.106 112.001 199.164 112.118 199.26 111.615C199.661 109.552 195.028 111.7 196.022 114.529L196.887 114.783C196.844 115.193 196.854 115.686 196.829 116.045C196.745 117.274 196.782 116.226 197.165 117.049L194.389 118.176C194.641 117.2 196.463 116.556 195.935 115.513C195.736 115.333 195.45 115.487 195.247 115.635C194.614 116.088 194.357 117.056 193.731 117.522C193.628 115.808 194.837 115.81 195.459 114.695C195.414 113.658 195.504 114.75 195.303 114.301C194.806 113.187 195.374 113.783 194.848 112.937C193.049 113.472 192.596 115.645 192.156 116.059C191.844 115.686 192.035 114.985 192.206 114.459C192.412 113.834 192.554 113.494 193.273 113.213C193.609 112.876 192.849 113.134 193.349 113.242C193.978 113.38 194.097 112.948 193.657 112.628C192.078 112.153 190.957 115.451 191.537 116.392C192.13 117.354 192.842 115.853 193.161 116.933C193.398 117.731 192.711 117.286 192.09 117.284C191.18 117.28 192.008 117.463 191.193 116.846C190.422 117.098 190.296 117.55 190.101 118.207C189.509 118.006 189.822 117.914 189.231 117.94C188.349 119.112 189.513 118.226 187.895 119.237C187.694 120.797 187.729 122.286 189.365 122.646C190.03 122.791 189.632 122.72 190.101 122.535C191.2 122.102 190.91 122.835 191.93 122.09C192.625 121.581 192.005 121.785 192.798 121.446C192.786 123.237 191.769 124.685 192.886 126.941C195.119 131.437 199.712 127.729 201.003 125.201C202.176 122.906 201.046 121.321 203.204 121.277C203.533 121.27 203.444 121.269 203.638 121.332C203.346 121.915 202.44 122.22 203.13 123.527C203.843 123.597 203.834 123.336 204.53 123.694C205.107 123.995 205.284 124.053 206.162 123.87C207.913 121.059 205.332 121.29 203.734 120.682C202.77 120.317 202.697 120.807 201.905 121.121C201.765 120.195 201.85 121.076 202.005 120.684L202.52 119.39C202.889 118.779 203.166 118.588 203.69 118.049C203.59 118.445 203.208 119.334 203.291 119.763C203.417 120.411 203.426 120.345 204.475 120.409C204.931 120.437 204.93 120.475 205.41 120.443C205.654 120.11 205.821 119.67 206.023 119.222C206.492 119.742 206.046 119.611 206.664 120.025L207.312 119.518C209.209 117.855 206.691 116.707 205.782 117.075C205.185 117.318 205.407 117.511 204.648 117.444C204.088 117.392 203.922 117.154 203.272 117.505C202.702 117.814 201.89 118.91 201.75 119.264C201.452 118.775 201.147 118.4 201.098 117.769C201.683 117.891 201.864 117.789 202.167 117.451Z" fill="#FEFEFE"/>
<path fill-rule="evenodd" clip-rule="evenodd" d="M174.071 152.706C174.535 152.749 177.097 151.401 177.578 150.961C177.164 149.756 175.875 148.238 175.785 146.699L178.055 146.219L179.552 150.222C180.126 150.379 180.276 150.132 180.409 150.074C180.713 149.948 181.049 149.872 181.142 149.806C181.664 149.421 181.161 149.16 181.825 149.033C181.825 149.033 182.312 149.038 182.461 149.013C182.413 148.747 180.816 143.314 180.408 142.962C180.048 142.652 178.35 142.207 177.814 142.063C176.394 141.68 176.657 141.072 175.326 142.489C174.75 143.102 172.25 146.155 172.086 146.589C171.792 147.374 172.564 148.836 172.969 149.553C173.595 150.66 173.634 151.677 174.071 152.706Z" fill="#FEFEFE"/>
<path fill-rule="evenodd" clip-rule="evenodd" d="M171.374 147.421C171.877 147.107 171.474 147.289 171.808 146.402C171.934 146.062 172.14 145.839 172.343 145.508C172.796 144.772 172.999 144.376 173.557 143.676C175.01 141.865 174.272 142.425 175.821 141.436L176.265 141.024C176.367 140.917 176.542 140.742 176.666 140.616C176.496 140.144 176.175 139.6 175.872 139.129C175.643 138.777 175.672 138.86 175.476 138.47C175.114 137.754 175.541 138.23 174.972 137.766C174.039 137.009 173.776 136.272 173.033 135.238C170.831 132.183 171.728 132.572 168.212 134.963C166.153 136.36 166.737 136.452 168.524 140.773C168.98 141.876 169.365 143.319 169.848 144.197C170.345 145.101 170.526 145.833 170.81 146.707C171.082 147.541 170.734 147.237 171.374 147.421Z" fill="#FEFEFE"/>
<path fill-rule="evenodd" clip-rule="evenodd" d="M165.83 118.196C166.062 118.946 166.064 118.653 166.492 119.112C166.271 119.591 166.295 119.536 165.895 119.9C166.476 121.27 166.111 120.025 165.91 121.215L166.576 121.719C166.068 122.533 165.565 122.181 166.202 123.144C165.186 123.305 164.734 123.543 163.746 123.458L163.987 121.619L163.379 121.154C162.959 120.44 163.775 120.523 162.616 120.385C162.788 120.025 163.098 119.881 162.847 119.544C162.287 118.797 161.352 120.982 161.386 121.41C161.437 121.445 161.319 121.72 162.373 121.359L162.297 122.26L163.122 122.356C162.595 124.696 162.737 123.22 161.865 124.366C162.049 124.912 162.235 124.686 162.637 124.844C162.158 125.175 162.122 125.256 161.919 125.725C161.544 125.452 161.881 125.818 161.624 125.406C161.55 125.29 161.468 125.039 161.42 124.919L160.383 125.369C160.346 124.308 160.476 123.925 159.28 124.527C159.29 123.719 159.655 123.424 159.242 122.72C158.632 122.99 158.581 123.983 158.512 124.631C158.372 125.94 158.777 125.618 159.714 125.354C159.841 126.018 159.669 126.11 160.052 126.712C160.615 126.582 160.705 126.282 161.03 126.336C161.41 127.618 160.027 127.721 159.271 128.222C159.116 127.532 159.216 127.66 158.813 127.287C157.909 127.619 158.192 127.969 157.597 128.519L157.198 127.31C156.103 127.541 155.291 129.638 156.887 128.571L157.394 129.766C158.345 129.435 157.885 129.182 158.584 128.654L158.914 129.021C159.329 129.458 158.673 129.145 159.413 129.444C160.355 128.897 159.612 128.657 160.462 128.4C159.828 130.81 161.061 133.183 163.231 134.28C166.057 135.712 174.261 133.247 171.829 126.772C171.265 125.263 169.709 124.06 168.269 123.562C167.211 123.202 167.569 123.413 166.997 122.5L167.444 121.743C167.187 121.315 167.212 121.28 166.849 121.099C167.111 120.771 167.257 120.754 167.584 120.376C167.391 119.745 167.401 120.124 166.975 119.6C167.414 119.181 167.367 119.473 167.443 118.851C167.136 118.526 167.511 118.881 167.119 118.612L166.685 118.327C166.9 118.228 166.766 118.337 167.039 118.19L167.472 117.891C166.862 117.292 166.427 117.707 165.83 118.196Z" fill="#FEFEFE"/>
<path fill-rule="evenodd" clip-rule="evenodd" d="M173.333 124.712C172.303 124.554 171.931 123.494 170.951 123.574C171.121 124.738 172.108 124.675 172.783 125.369C173.33 125.925 173.589 127.416 173.865 128.306C174.432 130.14 174.38 130.048 173.632 131.193C173.102 132.007 171.49 133.771 173.249 134.272C173.532 133.946 173.925 132.683 174.198 132.126C175.212 130.042 174.74 131.049 175.574 130.309L174.415 125.896C174.763 125.651 175.149 125.363 175.611 125.15C176.474 124.746 176.611 125.043 176.566 124.233C175.769 123.964 175.404 124.594 174.526 124.896C174.637 123.579 176.064 123.069 175.897 122.132C175.32 121.928 175.197 122.263 174.889 122.696C174.599 123.105 174.345 123.447 174.087 123.842L173.5 121.035C172.339 121.474 173.512 123.045 173.333 124.712Z" fill="#FEFEFE"/>
<path fill-rule="evenodd" clip-rule="evenodd" d="M158.68 133.896C157.77 134.226 156.674 133.533 156.038 134.047C156.344 134.799 156.883 134.465 158.416 134.614C157.989 135.465 156.178 135.919 156.853 136.735C157.351 137.069 157.86 135.719 159.374 135.087C160.073 135.543 162.728 138.977 165.903 138.413C166.576 138.292 166.661 138.282 166.804 137.748C166.402 137.285 166.899 137.569 166.139 137.404C164.052 136.947 162.489 136.712 160.474 134.649C159.242 133.385 160.659 134.298 159.738 131.631C159.441 130.768 159.426 130.639 158.628 130.691C158.725 131.393 158.76 131.269 159.012 131.872C159.384 132.759 159.207 132.428 159.188 132.717L159.124 133.013C159.086 132.99 159.025 132.91 159.018 132.938C158.936 133.271 157.936 131.115 157.215 130.987C156.782 131.789 157.94 132.331 158.68 133.896Z" fill="#FEFEFE"/>
<path fill-rule="evenodd" clip-rule="evenodd" d="M172.443 159.336C173.323 159.219 173.313 158.663 174.66 157.899C176.174 157.041 175.535 156.811 178.395 155.542C178.082 154.655 176.365 153.055 175.763 152.722C174.844 153.047 171.789 158.115 172.443 159.336Z" fill="#FEFEFE"/>
<path fill-rule="evenodd" clip-rule="evenodd" d="M180.398 150.672C180.689 151.381 182.467 152.516 182.954 152.659C183.769 151.588 184.443 150.575 185.464 149.511C185.856 149.103 186.175 148.939 186.469 148.51L185.976 147.438C184.059 147.789 181.307 150.151 180.398 150.672Z" fill="#FEFEFE"/>
</svg>
